<?xml version="1.0" encoding="UTF-8"?>
<svg id="Capa_2" data-name="Capa 2" xmlns="http://www.w3.org/2000/svg" viewBox="0 0 33.06 41.25">
  <defs>
    <style>
      .cls-1 {
        fill: #c84157;
      }
    </style>
  </defs>
  <g id="Capa_1-2" data-name="Capa 1">
    <path class="cls-1" d="M33.06,31.14l-2.54,3.81-3.96-2.64c-.28.3-.57.58-.87.85-.28.25-.57.49-.87.71-1.74,1.32-3.81,2.24-6.06,2.61v4.77h-4.57v-4.78c-2.22-.38-4.26-1.29-5.98-2.59-.3-.23-.59-.46-.86-.71-.3-.27-.59-.56-.87-.85l-3.95,2.63-2.54-3.81,3.96-2.64c-.31-.69-.56-1.4-.75-2.14-.27-1.06-.42-2.17-.44-3.31,0-.05,0-.09,0-.14.04,0,.09,0,.14,0h4.45c-.05,2.36,1.11,4.44,1.54,5.09.42.63.92,1.21,1.48,1.72.52.47,1.09.88,1.71,1.22.66.37,1.37.65,2.11.85v-4.92c-.6-.35-1.11-.83-1.49-1.41-.44-.66-.78-1.59-.77-2.54-1.86,0-3.46-1.11-4.18-2.7-.09-.19-.16-.38-.22-.58h0c-.12-.41-.19-.85-.19-1.3h0c0-2.53-2.05-4.58-4.59-4.59,0-.86.24-1.67.65-2.36.8-1.34,2.26-2.23,3.93-2.23,1.27,0,2.41.51,3.24,1.34.83.83,1.34,1.98,1.34,3.24v.03c0,1.68.91,3.2,2.26,4V4.57l.03-.07,2.29-4.5,2.25,4.56v13.2c1.36-.76,2.29-2.2,2.34-3.86,0-.05,0-.09,0-.14,0-.04,0-.08,0-.12h0c.02-1.23.53-2.34,1.34-3.15.83-.83,1.97-1.34,3.24-1.34,1.67,0,3.13.89,3.93,2.23.41.69.65,1.5.65,2.36h0c-2.49,0-4.52,1.99-4.58,4.47,0,.04,0,.08,0,.12v.04c0,.44-.07.86-.19,1.26h0c-.06.2-.13.4-.22.58-.72,1.59-2.32,2.7-4.18,2.7.03.97-.33,1.88-.77,2.54h0c-.4.6-.94,1.1-1.57,1.45v4.89c.78-.19,1.51-.49,2.19-.87.62-.34,1.19-.75,1.71-1.22.56-.51,1.06-1.09,1.48-1.72.43-.65.78-1.35,1.04-2.1.32-.94.5-1.94.5-2.99h4.47s.08,0,.12,0h0c0,1.19-.15,2.35-.44,3.45-.19.74-.44,1.46-.75,2.14l3.96,2.64Z"/>
  </g>
</svg>