<?xml version="1.0" encoding="UTF-8"?>
<svg id="Capa_2" data-name="Capa 2" xmlns="http://www.w3.org/2000/svg" viewBox="0 0 201.01 37.03">
  <defs>
    <style>
      .cls-1 {
        fill: #1f2b24;
      }
    </style>
  </defs>
  <g id="Capa_1-2" data-name="Capa 1">
    <g>
      <path class="cls-1" d="M18.65,5.76c0-3.22-2.16-5.38-5.38-5.38H0v18.27h3.26v-7.7h10.01c3.22,0,5.38-2.09,5.38-5.19ZM3.26,3.26h10.01c1.27,0,2.13.85,2.13,2.13v.56c0,1.27-.85,2.13-2.13,2.13H3.26V3.26Z"/>
      <polygon class="cls-1" points="41.55 3.26 41.55 .38 23.65 .38 23.65 18.65 41.55 18.65 41.55 15.77 26.91 15.77 26.91 10.95 37.8 10.95 37.8 8.07 26.91 8.07 26.91 3.26 41.55 3.26"/>
      <path class="cls-1" d="M61.91,18.65h3.66l-4.01-6.45c-.13-.23-.37-.54-.65-.87l-.32-.36.48-.05c2.85-.29,4.69-2.31,4.69-5.16,0-3.22-2.16-5.38-5.38-5.38h-13.27v18.27h3.26v-7.7h6.77l4.77,7.7ZM50.38,3.26h10.01c1.27,0,2.13.85,2.13,2.13v.56c0,1.27-.85,2.13-2.13,2.13h-10.01V3.26Z"/>
      <path class="cls-1" d="M89.8,5.76c0-3.22-2.16-5.38-5.38-5.38h-13.27v18.27h3.26v-7.7h10.01c3.22,0,5.38-2.09,5.38-5.19ZM74.4,3.26h10.01c1.27,0,2.13.85,2.13,2.13v.56c0,1.27-.85,2.13-2.13,2.13h-10.01V3.26Z"/>
      <polygon class="cls-1" points="112.7 3.26 112.7 .38 94.8 .38 94.8 18.65 112.7 18.65 112.7 15.77 98.06 15.77 98.06 10.95 108.95 10.95 108.95 8.07 98.06 8.07 98.06 3.26 112.7 3.26"/>
      <path class="cls-1" d="M132.28.31h-6.44c-5.48.02-9.45,3.87-9.45,9.15s3.92,9.07,9.34,9.15h.12s6.44,0,6.44,0v-2.94h-6.48c-3.46-.04-5.97-2.66-5.97-6.21s2.53-6.18,6.01-6.21h6.44V.31Z"/>
      <polygon class="cls-1" points="155.95 .38 137.68 .38 137.68 3.26 145.19 3.26 145.19 18.65 148.44 18.65 148.44 3.26 155.95 3.26 155.95 .38"/>
      <path class="cls-1" d="M169.53,19.03c5.08,0,8.76-3.84,8.76-9.14V.38h-3.26v9.51c0,3.52-2.32,6.07-5.51,6.07s-5.51-2.55-5.51-6.07V.38h-3.26v9.51c0,5.29,3.68,9.14,8.76,9.14Z"/>
      <path class="cls-1" d="M192.25,19.03c4,0,8.76-1.02,8.76-5.87,0-3.69-2.56-5.27-8.57-5.27-2.76,0-5.32-.27-5.32-2.24,0-1.26.89-2.76,5.13-2.76,2.92,0,4.93,1.05,5.12,2.63h3.27c-.16-3.31-3.49-5.51-8.38-5.51-3.83,0-8.39.98-8.39,5.65,0,3.64,2.39,5.12,8.24,5.12,2.8,0,5.66.28,5.66,2.39,0,1.12-.72,2.99-5.51,2.99-3.18,0-5.29-1.02-5.49-2.63h-3.26c.17,3.31,3.64,5.51,8.76,5.51Z"/>
    </g>
    <g>
      <path class="cls-1" d="M71.87,35.08l.81,1.95h1.59l-3.85-9.25h-2.63l-3.85,9.25h1.55l.81-1.95h5.56ZM68.82,29.03h.54l1.99,4.79h-4.51l1.99-4.79Z"/>
      <polygon class="cls-1" points="84.08 27.78 74.7 27.78 74.7 29.03 78.65 29.03 78.65 37.03 80.12 37.03 80.12 29.03 84.08 29.03 84.08 27.78"/>
      <polygon class="cls-1" points="96.04 29.03 96.04 27.78 86.86 27.78 86.86 37.03 96.04 37.03 96.04 35.77 88.33 35.77 88.33 33.03 94.06 33.03 94.06 31.77 88.33 31.77 88.33 29.03 96.04 29.03"/>
      <polygon class="cls-1" points="99.22 27.78 99.22 37.03 106.62 37.03 106.62 35.77 100.69 35.77 100.69 27.78 99.22 27.78"/>
      <rect class="cls-1" x="109.4" y="27.78" width="1.47" height="9.25"/>
      <polygon class="cls-1" points="123.53 29.03 123.53 27.78 114.34 27.78 114.34 37.03 123.53 37.03 123.53 35.77 115.81 35.77 115.81 33.03 121.55 33.03 121.55 31.77 115.81 31.77 115.81 29.03 123.53 29.03"/>
      <path class="cls-1" d="M134.44,37.03h1.64l-1.99-3.17c-.07-.12-.19-.27-.33-.44l-.32-.36.49-.05c1.44-.14,2.36-1.15,2.36-2.56,0-1.62-1.07-2.68-2.71-2.68h-6.87v9.25h1.47v-4h3.76l2.51,4ZM128.17,29.03h5.39c.73,0,1.24.5,1.24,1.22v.29c0,.72-.51,1.22-1.24,1.22h-5.39v-2.74Z"/>
    </g>
  </g>
</svg>